<svg xmlns="http://www.w3.org/2000/svg" fill="#335778" width="400" height="400" viewBox="0 0 400 400">
  <defs>
    <style>
      .cls-1 {
        fill-rule: evenodd;
      }
    </style>
  </defs>
  <path id="arc2" class="cls-1" d="M312.984,301.67l-11.333-11.333A135.478,135.478,0,0,0,336,200h16A151.43,151.43,0,0,1,312.984,301.67ZM64,200a135.417,135.417,0,0,0,14.406,60.964l-13.886,8.017A152.052,152.052,0,0,1,200,48V64A136,136,0,0,0,64,200ZM200,336a135.478,135.478,0,0,0,90.337-34.349l11.333,11.333A152,152,0,0,1,72.539,282.827l13.881-8.014A135.867,135.867,0,0,0,200,336Z"/>
</svg>
